<svg width="120" height="120" viewBox="0 0 120 120" fill="none" xmlns="http://www.w3.org/2000/svg">
<circle cx="60" cy="60" r="60" fill="url(#gradient-admin)"/>
<circle cx="60" cy="45" r="20" fill="white" opacity="0.9"/>
<path d="M25 95C25 80 40 70 60 70C80 70 95 80 95 95V105C95 107.5 92.5 110 90 110H30C27.5 110 25 107.5 25 105V95Z" fill="white" opacity="0.9"/>
<!-- Admin crown icon -->
<path d="M70 32L75 40L82 35L80 42L85 45H35L40 42L38 35L45 40L50 32L55 38L60 32L65 38L70 32Z" fill="#DC2626" stroke="white" stroke-width="1"/>
<defs>
<linearGradient id="gradient-admin" x1="0%" y1="0%" x2="100%" y2="100%">
<stop offset="0%" style="stop-color:#DC2626;stop-opacity:1" />
<stop offset="100%" style="stop-color:#B91C1C;stop-opacity:1" />
</linearGradient>
</defs>
</svg>
