<?xml version="1.0" encoding="UTF-8"?>
<svg width="512" height="512" viewBox="0 0 512 512" xmlns="http://www.w3.org/2000/svg">
  <defs>
    <linearGradient id="iconGradient" x1="0%" y1="0%" x2="100%" y2="100%">
      <stop offset="0%" style="stop-color:#10B981;stop-opacity:1" />
      <stop offset="100%" style="stop-color:#059669;stop-opacity:1" />
    </linearGradient>
  </defs>

  <!-- Background circle -->
  <circle cx="256" cy="256" r="240" fill="url(#iconGradient)"/>

  <!-- Shopping bag icon for ecommerce (scaled for 512x512) -->
  <g transform="translate(128,154) scale(12.8)">
    <path d="M3 6h14l-1 8H4L3 6z"
          fill="white" stroke="none"/>
    <!-- Bag handles -->
    <path d="M6 6V4c0-1.1.9-2 2-2h4c1.1 0 2 .9 2 2v2"
          stroke="url(#iconGradient)" stroke-width="1.5" stroke-linecap="round" fill="none"/>
    <!-- Letter "O" for OSmart -->
    <circle cx="10" cy="9.5" r="1.5" fill="url(#iconGradient)"/>
    <circle cx="10" cy="9.5" r="0.8" fill="white"/>
  </g>
</svg>encoding="UTF-8"?>
<svg width="512" height="512" viewBox="0 0 64 64" xmlns="http://www.w3.org/2000/svg">
  <defs>
    <linearGradient id="iconGradient" x1="0%" y1="0%" x2="100%" y2="100%">
      <stop offset="0%" style="stop-color:#4F46E5;stop-opacity:1" />
      <stop offset="100%" style="stop-color:#7C3AED;stop-opacity:1" />
    </linearGradient>
  </defs>
  
  <!-- Background circle -->
  <circle cx="32" cy="32" r="30" fill="url(#iconGradient)"/>
  
  <!-- Shopping cart icon (centered and scaled) -->
  <g transform="translate(20,20) scale(1.2)">
    <path d="M2 2h3l1.68 8.39a2 2 0 0 0 2 1.61h8.64a2 2 0 0 0 2-1.61L22 6H6" 
          stroke="white" stroke-width="2" fill="none" stroke-linecap="round" stroke-linejoin="round"/>
    <circle cx="9" cy="20" r="1.5" fill="white"/>
    <circle cx="20" cy="20" r="1.5" fill="white"/>
  </g>
</svg>